<svg id="eo9SIQVcTqe1" xmlns="http://www.w3.org/2000/svg" xmlns:xlink="http://www.w3.org/1999/xlink" viewBox="0 0 1080 1920" shape-rendering="geometricPrecision" text-rendering="geometricPrecision"><ellipse rx="275.597408" ry="275.597408" transform="translate(555.424921 1235.597408)" fill="none" stroke="#fff" stroke-width="200"/><rect width="115.924221" height="395.741306" rx="11" ry="11" transform="translate(506.9709 743.997404)" fill="#fff" stroke-width="0"/><rect width="39.982905" height="166.987429" rx="0" ry="0" transform="matrix(1.06066-1.06066 1.06066 1.06066 38.368286 595.401361)" fill="#fff" stroke-width="0"/><rect width="39.982905" height="166.987429" rx="0" ry="0" transform="matrix(1.359462-.633927 0.633927 1.359462 246.104614 464.832839)" fill="#fff" stroke-width="0"/><rect width="39.982905" height="166.987429" rx="0" ry="0" transform="matrix(1.5 0 0 1.5 530.004274 394.662476)" fill="#fff" stroke-width="0"/><rect width="39.982905" height="166.987429" rx="0" ry="0" transform="matrix(1.359462 0.633927-.633927 1.359462 803.956791 460.690718)" fill="#fff" stroke-width="0"/><rect width="39.982905" height="166.987429" rx="0" ry="0" transform="matrix(1.06066 1.06066-1.06066 1.06066 1014.224796 582.083255)" fill="#fff" stroke-width="0"/></svg>
